<svg xmlns="http://www.w3.org/2000/svg">
    <symbol id="icon-oven" viewBox="0 0 32 32" xml:space="preserve">
        <path d="M3 7.5A4.5 4.5 0 0 1 7.5 3h17A4.5 4.5 0 0 1 29 7.5v17a4.5 4.5 0 0 1-4.5 4.5h-17A4.5 4.5 0 0 1 3 24.5v-17Zm24 0A2.5 2.5 0 0 0 24.5 5h-17A2.5 2.5 0 0 0 5 7.5V11h22V7.5Zm0 17V13H5v11.5A2.5 2.5 0 0 0 7.5 27h17a2.5 2.5 0 0 0 2.5-2.5Zm-17-15a1.5 1.5 0 1 0 0-3a1.5 1.5 0 0 0 0 3Zm6 0a1.5 1.5 0 1 0 0-3a1.5 1.5 0 0 0 0 3ZM23.5 8a1.5 1.5 0 1 1-3 0a1.5 1.5 0 0 1 3 0ZM9 23v-6h14v6H9Zm-.5-8A1.5 1.5 0 0 0 7 16.5v7A1.5 1.5 0 0 0 8.5 25h15a1.5 1.5 0 0 0 1.5-1.5v-7a1.5 1.5 0 0 0-1.5-1.5h-15Z" />
    </symbol>
    <symbol id="icon-pump" viewBox="0 0 24 24" xml:space="preserve">
      <path d="M3 17h4.1q-.425-.425-.787-.925T5.675 15H3v2Zm9 0q2.075 0 3.538-1.463T17 12q0-2.075-1.463-3.538T12 7Q9.925 7 8.462 8.463T7 12q0 2.075 1.463 3.538T12 17Zm6.325-8H21V7h-4.1q.425.425.788.925T18.325 9ZM1 20v-8h2v1h2.075q-.05-.25-.063-.488T5 12q0-2.925 2.038-4.963T12 5h9V4h2v8h-2v-1h-2.075q.05.25.063.488T19 12q0 2.925-2.038 4.963T12 19H3v1H1Zm2-3v-2v2Zm18-8V7v2Zm-9 3Zm0 3q-.825 0-1.413-.588T10 13q0-.575.238-1.137t.912-1.613L12 9l.85 1.25q.675 1.05.913 1.613T14 13q0 .825-.588 1.413T12 15Z" />
	</symbol>
	<symbol id="icon-boiler" viewBox="0 0 24 24" xml:space="preserve">
      <path d="M9.3 10.775q0 .475.163.925t.462.825q.05-.3.2-.588t.375-.487L12 10l1.475 1.475q.225.2.375.475t.2.575q.275-.375.487-.8t.213-.9q0-.475-.15-.913t-.45-.812q-.275.125-.563.2T13 9.375q-.75 0-1.375-.425t-.95-1.125q-.3.3-.55.637t-.438.713Q9.5 9.55 9.4 9.95t-.1.825ZM12 12.1l-.425.425q-.1.1-.138.2t-.037.225q0 .25.175.4t.425.15q.25 0 .425-.15t.175-.4q0-.125-.037-.225t-.138-.2L12 12.1ZM12 5v1.9q0 .425.3.713t.725.287q.275 0 .5-.162t.4-.388l.175-.25q1.025.575 1.588 1.563t.562 2.162q0 1.75-1.25 2.963T12 15q-1.75 0-2.975-1.225T7.8 10.8q0-1.925 1.225-3.425T12 5ZM6 22q-.825 0-1.413-.588T4 20V6q0-1.65 1.175-2.825T8 2h8q1.65 0 2.825 1.175T20 6v14q0 .825-.588 1.413T18 22H6Zm0-4v2h12v-2q-.75 0-1.2.5T15 19q-1.35 0-1.763-.5T12 18q-.825 0-1.238.5T9 19q-1.35 0-1.763-.5T6 18Zm3-1q.825 0 1.238-.5T12 16q1.35 0 1.8.5t1.2.5q.75 0 1.2-.5T18 16V6q0-.825-.588-1.413T16 4H8q-.825 0-1.413.588T6 6v10q1.35 0 1.763.5T9 17Z"/>
	</symbol>
	<symbol id="icon-charging" viewBox="0 0 24 24" xml:space="preserve">
	  <path d="m8.5 19l2.5-4H9.5v-3L7 16h1.5zM6 10h6V5H6zm0 9h6v-7H6zm-2 2V5q0-.825.588-1.412T6 3h6q.825 0 1.413.588T14 5v7h1.25q.725 0 1.238.513T17 13.75v4.625q0 .425.35.775t.775.35q.45 0 .788-.35t.337-.775V9H19q-.425 0-.712-.288T18 8V6h.5V4.5h1V6h1V4.5h1V6h.5v2q0 .425-.288.713T21 9h-.25v9.375q0 1.05-.763 1.838T18.126 21q-1.075 0-1.85-.788t-.775-1.837V13.75q0-.125-.062-.187t-.188-.063H14V21zm8-2H6z"/>
	</symbol>
	<symbol id="icon-aircon" viewBox="0 0 24 24" xml:space="preserve">
	  <path d="M20 12H4q-.825 0-1.412-.587T2 10V4q0-.825.588-1.412T4 2h16q.825 0 1.413.588T22 4v6q0 .825-.587 1.413T20 12m-9 7v-4q0-.425.288-.712T12 14t.713.288T13 15v4q0 .425-.288.713T12 20t-.712-.288T11 19m9-9H4zM6 10V8q0-.825.588-1.412T8 6h8q.825 0 1.413.588T18 8v2h-2V8H8v2zm-2 0h16V4H4zm0 9q-.425 0-.712-.288T3 18t.288-.712T4 17q.6 0 1.15-.225t.975-.65q.25-.25.425-.537t.3-.638q.125-.4.425-.675T8 14q.375 0 .65.25t.275.575q0 .65-.475 1.45t-.925 1.25q-.7.7-1.612 1.088T4 19m15.925 0q.425 0 .713-.288t.287-.712t-.288-.712t-.712-.288q-.6 0-1.15-.225t-.975-.65q-.25-.25-.425-.537t-.3-.638q-.125-.4-.425-.675T15.925 14q-.375 0-.65.25t-.275.575q0 .65.475 1.45t.925 1.25q.7.7 1.613 1.088t1.912.387"/>
	</symbol>
	<symbol id="icon-battery" viewBox="0 0 24 24" xml:space="preserve">
	  <path d="M16.5 22v-3H14l3.5-5v3H20zM8 22q-.425 0-.712-.288T7 21V5q0-.425.288-.712T8 4h2V2h4v2h2q.425 0 .713.288T17 5v7q-.525 0-1.025.088T15 12.35V6H9v14h2.35q.2.575.488 1.075t.687.925z"/>
	</symbol>
	<symbol id="icon-plug" viewBox="0 0 16 16" xml:space="preserve">
	  <path fill-rule="evenodd" d="M1 8a7 7 0 1 1 2.898 5.673c-.167-.121-.216-.406-.002-.62l1.8-1.8a3.5 3.5 0 0 0 4.572-.328l1.414-1.415a.5.5 0 0 0 0-.707l-.707-.707l1.559-1.563a.5.5 0 1 0-.708-.706l-1.559 1.562l-1.414-1.414l1.56-1.562a.5.5 0 1 0-.707-.706l-1.56 1.56l-.707-.706a.5.5 0 0 0-.707 0L5.318 5.975a3.5 3.5 0 0 0-.328 4.571l-1.8 1.8c-.58.58-.62 1.6.121 2.137A8 8 0 1 0 0 8a.5.5 0 0 0 1 0"/>
	</symbol>
	<symbol id="icon-pool" viewBox="0 0 24 24" xml:space="preserve">
	  <path d="M2 15c1.67-.75 3.33-1.5 5-1.83V5a3 3 0 0 1 3-3c1.31 0 2.42.83 2.83 2H10a1 1 0 0 0-1 1v1h5V5a3 3 0 0 1 3-3c1.31 0 2.42.83 2.83 2H17a1 1 0 0 0-1 1v9.94c2-.32 4-1.94 6-1.94v2c-2.22 0-4.44 2-6.67 2c-2.22 0-4.44-2-6.66-2c-2.23 0-4.45 1-6.67 2zm12-7H9v2h5zm0 4H9v1c1.67.16 3.33 1.31 5 1.79zM2 19c2.22-1 4.44-2 6.67-2c2.22 0 4.44 2 6.66 2c2.23 0 4.45-2 6.67-2v2c-2.22 0-4.44 2-6.67 2c-2.22 0-4.44-2-6.66-2c-2.23 0-4.45 1-6.67 2z"/>
	</symbol>
	<symbol id="icon-dryer" viewBox="0 0 24 24" xml:space="preserve">
	  <path d="M6 2h12a2 2 0 0 1 2 2v16a2 2 0 0 1-2 2H6a2 2 0 0 1-2-2V4a2 2 0 0 1 2-2m1 2a1 1 0 0 0-1 1a1 1 0 0 0 1 1a1 1 0 0 0 1-1a1 1 0 0 0-1-1m3 0a1 1 0 0 0-1 1a1 1 0 0 0 1 1a1 1 0 0 0 1-1a1 1 0 0 0-1-1m2 4a6 6 0 0 0-6 6a6 6 0 0 0 6 6a6 6 0 0 0 6-6a6 6 0 0 0-6-6m-3.89 2.5H10c-.24 1.38 0 2.17.58 2.79c1.1 1.07 1.58 2.42 1.31 4.21H10c.24-1.38 0-2.17-.58-2.79c-1.1-1.07-1.57-2.42-1.31-4.21m4 0H14c-.24 1.38 0 2.17.58 2.79c1.1 1.07 1.58 2.42 1.31 4.21H14c.24-1.38 0-2.17-.58-2.79c-1.1-1.07-1.57-2.42-1.31-4.21"/>
	</symbol>
	<symbol id="icon-dishwasher" viewBox="0 0 24 24" xml:space="preserve">
	  <path d="M6.25 3A3.25 3.25 0 0 0 3 6.25V10h1.5v-.5h15v8.25a1.75 1.75 0 0 1-1.75 1.75H7v.018c.766.11 1.373.716 1.482 1.482h9.268A3.25 3.25 0 0 0 21 17.75V6.25A3.25 3.25 0 0 0 17.75 3zM19.5 8h-15V6.25c0-.966.784-1.75 1.75-1.75h11.5c.966 0 1.75.784 1.75 1.75zM9 6.25a1 1 0 1 1-2 0a1 1 0 0 1 2 0m3.75-.75a.75.75 0 0 0 0 1.5h3.5a.75.75 0 0 0 0-1.5zM2 11.75a.75.75 0 0 1 .75-.75h5a.75.75 0 0 1 .75.75v2A3.25 3.25 0 0 1 6 16.913V20.5h.75a.75.75 0 0 1 0 1.5h-3a.75.75 0 0 1 0-1.5h.75v-3.587A3.25 3.25 0 0 1 2 13.75z"/>
	</symbol>
	<symbol id="icon-washing" viewBox="0 0 24 24" xml:space="preserve">
	  <path d="M6.616 21q-.672 0-1.144-.472T5 19.385V4.615q0-.67.472-1.143Q5.944 3 6.616 3h10.769q.67 0 1.143.472q.472.472.472 1.144v14.769q0 .67-.472 1.143q-.472.472-1.143.472zm0-1h10.769q.23 0 .423-.192t.192-.424V4.616q0-.231-.192-.424T17.384 4H6.616q-.231 0-.424.192T6 4.615v14.77q0 .23.192.423t.423.192M12 18.23q1.748 0 2.99-1.24q1.24-1.242 1.24-2.99t-1.24-2.99Q13.747 9.77 12 9.77t-2.99 1.24Q7.77 12.253 7.77 14t1.24 2.99q1.242 1.24 2.99 1.24m0-.93q-.65 0-1.253-.247t-1.059-.703l4.662-4.661q.456.455.703 1.058T15.3 14q0 1.375-.962 2.338T12 17.3M8 7q.425 0 .713-.288T9 6t-.288-.712T8 5t-.712.288T7 6t.288.713T8 7m3 0q.425 0 .713-.288T12 6t-.288-.712T11 5t-.712.288T10 6t.288.713T11 7M6 20V4z"/>
	</symbol>
	<symbol id="icon-microwave" viewBox="0 0 24 24" xml:space="preserve">
	  <path d="M10.75 10.5q-.442 0-.832-.187t-.756-.425q-.214-.144-.434-.266T8.25 9.5q-.275 0-.494.109q-.22.108-.414.27q-.073.085-.167.14t-.21.054q-.213 0-.366-.153t-.153-.366q0-.123.056-.234q.056-.11.161-.178q.34-.275.739-.458Q7.8 8.5 8.25 8.5q.423 0 .793.19t.738.408q.233.164.472.283q.24.119.497.119q.296 0 .93-.408q.074-.073.162-.119t.192-.046q.214 0 .367.153t.153.366q0 .123-.056.234q-.056.11-.161.178q-.34.275-.739.458q-.398.184-.848.184m0 5q-.442 0-.832-.187t-.756-.425q-.214-.144-.434-.266T8.25 14.5q-.275 0-.494.109q-.22.108-.414.27q-.073.085-.167.14t-.21.054q-.213 0-.366-.153t-.153-.366q0-.123.056-.234q.056-.11.161-.178q.34-.275.739-.458q.398-.184.848-.184q.423 0 .793.19t.738.408q.233.164.472.283q.24.119.497.119q.339 0 .573-.229q.235-.229.55-.275q.15-.035.277.035t.173.184q.098.058.145.172q.048.115.009.251q-.02.066-.056.119t-.084.1q-.34.276-.739.46q-.398.183-.848.183M4.616 19q-.691 0-1.153-.462T3 17.384V6.616q0-.691.463-1.153T4.615 5h14.77q.69 0 1.152.463T21 6.616v10.769q0 .69-.463 1.153T19.385 19zm0-1H15V6H4.616q-.231 0-.424.192T4 6.616v10.769q0 .23.192.423t.423.192M16 18h3.385q.23 0 .423-.192t.192-.424V6.616q0-.231-.192-.424T19.385 6H16zm1.712-9.308h.577q.161 0 .282-.12q.121-.122.121-.284v-.577q0-.161-.12-.282q-.122-.121-.284-.121h-.577q-.161 0-.282.12q-.121.122-.121.283v.577q0 .162.12.283q.122.121.284.121M18 12.77q.31 0 .54-.23t.23-.539t-.23-.54t-.54-.23t-.54.23t-.23.54t.23.54t.54.23m0 4q.31 0 .54-.23t.23-.54t-.23-.54t-.54-.23t-.54.23t-.23.54t.23.54t.54.23M16 18V6z"/>
	</symbol>
	<symbol id="icon-toaster" viewBox="0 0 24 24" xml:space="preserve">
	  <path d="M21 11a2 2 0 0 0-2-2H5a2 2 0 0 0-2 2H2v2h1v7h18v-7h1v-2m-5 4a2 2 0 1 1 2-2a2 2 0 0 1-2 2m1-7H6c.33-2.25 2.88-4 6-4s5.63 1.75 6 4"/>
	</symbol>
	<symbol id="icon-fridge" viewBox="0 0 24 24" xml:space="preserve">
	  <path d="M9 21v1H7v-1a2 2 0 0 1-2-2V4a2 2 0 0 1 2-2h10a2 2 0 0 1 2 2v15a2 2 0 0 1-2 2v1h-2v-1zM7 4v5h10V4zm0 15h10v-8H7zm1-7h2v3H8zm0-6h2v2H8z"/>
	</symbol>
	<symbol id="icon-coffee" viewBox="0 0 24 24" xml:space="preserve">
	  <path d="M18 6V4h2V2H6c-1.1 0-2 .9-2 2v16c0 1.1.9 2 2 2h14v-2h-4.03A4.97 4.97 0 0 0 18 16v-5H8v5c0 1.64.81 3.09 2.03 4H6V4h2v2c0 .55.45 1 1 1h8c.55 0 1-.45 1-1"/>
	  <circle cx="13" cy="9" r="1"/>
	</symbol>
	<symbol id="icon-hood" viewBox="0 0 24 24" xml:space="preserve">
	  <path d="M4.616 19q-.672 0-1.144-.472T3 17.385V13.8q0-.188.086-.368t.226-.32L8 8.423V4h8v4.423l4.521 4.521q.218.217.348.513t.131.618v3.31q0 .67-.472 1.143q-.472.472-1.143.472zm.3-6.116h14.169L15 8.8V5H9v3.8zM4.616 18h14.769q.269 0 .442-.173t.173-.442v-3.5H4v3.5q0 .269.173.442t.443.173M10 16.392v-.884h4v.884z"/>
	</symbol>
	<symbol id="icon-light" viewBox="0 0 24 24" xml:space="preserve">
	  <path d="M9.973 18h4.054c.132-1.202.745-2.193 1.74-3.277c.113-.122.832-.867.917-.973a6 6 0 1 0-9.37-.002c.086.107.807.853.918.974c.996 1.084 1.609 2.076 1.741 3.278M14 20h-4v1h4zm-8.246-5a8 8 0 1 1 12.49.002C17.624 15.774 16 17 16 18.5V21a2 2 0 0 1-2 2h-4a2 2 0 0 1-2-2v-2.5C8 17 6.375 15.774 5.754 15M13 10.004h2.5l-4.5 6v-4H8.5L13 6z"/>
	</symbol>
	<symbol id="icon-tv" viewBox="0 0 24 24" xml:space="preserve">
	  <path d="M8.16 3L6.75 4.41L9.34 7H4c-1.11 0-2 .89-2 2v10c0 1.11.89 2 2 2h16c1.11 0 2-.89 2-2V9c0-1.11-.89-2-2-2h-5.34l2.59-2.59L15.84 3L12 6.84zM4 9h13v10H4zm15.5 0a1 1 0 0 1 1 1a1 1 0 0 1-1 1a1 1 0 0 1-1-1a1 1 0 0 1 1-1m0 3a1 1 0 0 1 1 1a1 1 0 0 1-1 1a1 1 0 0 1-1-1a1 1 0 0 1 1-1"/>
	</symbol>
	<symbol id="icon-screen" viewBox="0 0 32 32" xml:space="preserve">
	  <path d="M28 4H4a2 2 0 0 0-2 2v16a2 2 0 0 0 2 2h8v4H8v2h16v-2h-4v-4h8a2 2 0 0 0 2-2V6a2 2 0 0 0-2-2M18 28h-4v-4h4Zm10-6H4V6h24Z"/>
	</symbol>
	<symbol id="icon-server" viewBox="0 0 24 24" xml:space="preserve">
	  <path d="M8 6a1 1 0 1 0-1-1a1 1 0 0 0 1 1m13 13h-6.18A3 3 0 0 0 13 17.18V15h4a3 3 0 0 0 3-3v-2a3 3 0 0 0-.78-2A3 3 0 0 0 20 6V4a3 3 0 0 0-3-3H7a3 3 0 0 0-3 3v2a3 3 0 0 0 .78 2A3 3 0 0 0 4 10v2a3 3 0 0 0 3 3h4v2.18A3 3 0 0 0 9.18 19H3a1 1 0 0 0 0 2h6.18a3 3 0 0 0 5.64 0H21a1 1 0 0 0 0-2M6 4a1 1 0 0 1 1-1h10a1 1 0 0 1 1 1v2a1 1 0 0 1-1 1H7a1 1 0 0 1-1-1Zm1 9a1 1 0 0 1-1-1v-2a1 1 0 0 1 1-1h10a1 1 0 0 1 1 1v2a1 1 0 0 1-1 1Zm5 8a1 1 0 1 1 1-1a1 1 0 0 1-1 1M8 10a1 1 0 1 0 1 1a1 1 0 0 0-1-1"/>
	</symbol>
	<symbol id="icon-laptop" viewBox="0 0 24 24" xml:space="preserve">
	  <path d="M1 20q-.425 0-.712-.288T0 19t.288-.712T1 18h1V5q0-.825.588-1.412T4 3h16q.825 0 1.413.588T22 5v13h1q.425 0 .713.288T24 19t-.288.713T23 20zm9.5-2h3q.2 0 .35-.15t.15-.35t-.15-.35t-.35-.15h-3q-.2 0-.35.15t-.15.35t.15.35t.35.15M4 15h16V5H4zm8-5"/>
	</symbol>
	<symbol id="icon-console" viewBox="0 0 56 56" xml:space="preserve">
	  <path d="M0 39.319c0 4.539 2.948 7.487 7.39 7.487c2.25 0 4.481-.97 6.11-2.987l3.511-4.248c.505-.601 1.087-.892 1.669-.892h18.64c.582 0 1.164.29 1.65.892l3.51 4.248c1.649 2.017 3.86 2.987 6.13 2.987c4.422 0 7.39-2.948 7.39-7.487c0-1.94-.466-4.17-1.203-6.673c-1.183-3.976-3.258-9.388-5.256-13.578c-1.649-3.492-2.503-5.082-6.615-6.013c-3.666-.834-8.729-1.397-14.936-1.397s-11.27.563-14.916 1.397c-4.113.93-4.966 2.521-6.634 6.013c-1.979 4.19-4.054 9.602-5.237 13.578C.446 35.148 0 37.38 0 39.32m2.968.116c0-1.222.271-2.696.892-4.81c1.3-4.462 3.55-10.242 5.509-14.529c.95-2.075 1.474-3.336 3.996-3.918c3.51-.834 8.496-1.397 14.625-1.397c6.13 0 11.115.563 14.645 1.397c2.502.582 3.026 1.843 3.996 3.918c1.998 4.287 4.151 10.087 5.49 14.529c.64 2.114.911 3.588.911 4.81c0 2.677-1.881 4.365-4.384 4.365c-1.474 0-2.91-.776-4.034-2.153l-3.647-4.404c-.931-1.125-1.726-1.687-3.51-1.687H18.543c-1.804 0-2.58.562-3.511 1.687l-3.647 4.404c-1.125 1.377-2.56 2.153-4.034 2.153c-2.503 0-4.384-1.688-4.384-4.365m9.33-14.102c0 1.009.582 1.63 1.61 1.63h3.472v3.394c0 .99.582 1.61 1.552 1.61c.95 0 1.513-.62 1.513-1.61v-3.394h3.297c1.086 0 1.727-.621 1.727-1.63c0-.97-.64-1.57-1.727-1.57h-3.297v-3.395c0-.99-.563-1.59-1.513-1.59c-.97 0-1.552.6-1.552 1.59v3.394h-3.472c-1.028 0-1.61.601-1.61 1.571m27.757-.252c1.572 0 2.794-1.203 2.794-2.774c0-1.59-1.222-2.812-2.794-2.812c-1.551 0-2.793 1.222-2.793 2.812c0 1.572 1.242 2.774 2.793 2.774m-5.702 5.761c1.57 0 2.773-1.222 2.773-2.793c0-1.59-1.202-2.813-2.773-2.813s-2.794 1.222-2.794 2.813a2.76 2.76 0 0 0 2.794 2.793"/>
	</symbol>
	<symbol id="icon-ve" viewBox="0 0 1600 1600" xml:space="preserve">
	  <path d="M1553,402.5l-18.6-18.6c-4-4-10.4-4-14.4,0l-86.1,86.1l-57.2-57.2l86.1-86.1c4-4,4-10.4,0-14.4l-18.6-18.6   c-4-4-10.4-4-14.4,0l-86.1,86.1l-47-47c-48.6,48.6-57.8,121.8-27.5,179.7c-18,17.7-31.6,38.1-40.6,61.2c-2.7,6.8-4.9,13.8-6.7,21   c-39.6-45-74.3-73.2-74.3-73.2c-70.9-60.6-175.6-93.2-303.3-84.3c-190.4,13.3-267.9,98.6-324.4,160.9   c-34.7,38.3-55.9,60.1-87.2,64.8c-225.4,33.4-347,133.2-333.7,273.8c7.5,78.9,30.5,132.6,68.6,159.5c0,0,29.6,17.7,66,17.2h54.9   c27.4,69.8,95.5,119.3,174.9,119.3s147.5-49.5,174.9-119.3h236.9c27.4,69.8,95.5,119.3,174.9,119.3c88.3,0,162.6-61.3,182.6-143.6   c26.9-34.9,88.8-126.1,101.7-225.3c7.3-56.4-10.1-112.6-36.9-162.6c-3.8-12.3-7.4-27.5-8.8-43.8c-3.1-37.3,6.2-67.1,28.3-90.4   c59.9,42.3,143.3,36.6,197-17l-47-47l86.1-86.1C1557,412.9,1557,406.4,1553,402.5z M463.3,1159.8c-63.4,0-114.9-51.6-114.9-114.9   c0-63.4,51.6-114.9,114.9-114.9s114.9,51.6,114.9,114.9C578.2,1108.3,526.7,1159.8,463.3,1159.8z M1050,1159.8   c-63.4,0-114.9-51.6-114.9-114.9c0-63.4,51.6-114.9,114.9-114.9c63.4,0,114.9,51.6,114.9,114.9   C1165,1108.3,1113.4,1159.8,1050,1159.8z M1261.7,870.9c-2.2,38.8-16.9,78-35.1,109.7c-26.3-72.1-95.5-123.6-176.5-123.6   c-102.1,0-185.4,81.9-187.8,183.4H651.1c-2.4-101.5-85.7-183.4-187.8-183.4s-185.4,81.9-187.8,183.4h-45.4c-21,0.3-22.2-5-22.2-5   c-10.7-8.6-29.7-33.7-36.5-105.6c-12.5-132.6,164.9-178.9,271.8-194.8c58.7-8.7,93.6-47.2,130.6-87.9   c53.6-59,114.3-126,275.5-137.2c13.6-1,26.8-1.4,39.5-1.4c87,0,154.7,22,201.6,65.6C1090.3,574.1,1271.1,702.5,1261.7,870.9z"/>
	</symbol>
	<symbol id="icon-water_heater" viewBox="0 0 960 960" xml:space="preserve">
	  <path fill="none" stroke="currentColor" stroke-width="20" d="M840 80H420a40.045 40.045 0 0 0-40 40v550a40.045 40.045 0 0 0 40 40h10v55a95 95 0 0 1-190 0V520.218l9.589-210.952a120 120 0 1 0-99.178 0L160 520.218V765c0 96.5 78.505 175 175 175s175-78.5 175-175v-55h240v220a10 10 0 0 0 20 0V770h40v160a10 10 0 0 0 20 0V710h10a40.045 40.045 0 0 0 40-40V120a40.045 40.045 0 0 0-40-40ZM490 750h-40v-40h40ZM180 530h40v40h-40Zm-80-330a100 100 0 1 1 100 100 100.112 100.112 0 0 1-100-100Zm100 120a119.821 119.821 0 0 0 29.245-3.611L220.444 510h-40.888l-8.8-193.611A119.821 119.821 0 0 0 200 320Zm135 600c-85.467 0-155-69.533-155-155V590h40v175a115 115 0 0 0 229.893 5h40.028C487.27 853.16 418.793 920 335 920Zm415-230H510V310h240Zm60 60h-40v-40h40Zm50-80a20.023 20.023 0 0 1-20 20h-70V300a10 10 0 0 0-10-10H500a10 10 0 0 0-10 10v390h-70a20.023 20.023 0 0 1-20-20V120a20.023 20.023 0 0 1 20-20h420a20.023 20.023 0 0 1 20 20ZM200 210a10 10 0 1 1 10-10 10 10 0 0 1-10 10Zm-50-10a10 10 0 1 1-10-10 10 10 0 0 1 10 10Zm100 0a10 10 0 1 1 10 10 10 10 0 0 1-10-10Zm-30-50a10 10 0 1 1 10 10 10 10 0 0 1-10-10Zm0 100a10 10 0 1 1 10 10 10 10 0 0 1-10-10Zm-40-100a10 10 0 1 1-10-10 10 10 0 0 1 10 10Zm0 100a10 10 0 1 1-10-10 10 10 0 0 1 10 10Zm450 230a60 60 0 1 0-60-60 60.068 60.068 0 0 0 60 60Zm0-100a40 40 0 1 1-40 40 40.045 40.045 0 0 1 40-40Zm0 260a60 60 0 1 0-60-60 60.068 60.068 0 0 0 60 60Zm0-100a40 40 0 1 1-40 40 40.045 40.045 0 0 1 40-40Z"/>
	</symbol>
	<symbol id="icon-heating_coil" viewBox="0 0 24 24" xml:space="preserve">
	  <path d="M19 17c1.21 0 3-.8 3-3s-1.79-3-3-3h-2V9h2c2.2 0 3-1.79 3-3c0-2.2-1.79-3-3-3h-2V2h-1v1H8V2H7v1H2v2h5v2H5c-1.21 0-3 .8-3 3s1.79 3 3 3h2v2H5c-1.21 0-3 .8-3 3s1.79 3 3 3h2v1h1v-1h8v1h1v-1h5v-2h-5v-2zm0-4c.45 0 1 .19 1 1s-.55 1-1 1h-2v-2zm-3-2H8V9h8zm3-6c.45 0 1 .2 1 1c0 .45-.19 1-1 1h-2V5zM8 5h8v2H8zm-3 6c-.45 0-1-.19-1-1s.55-1 1-1h2v2zm3 2h8v2H8zm-3 6c-.45 0-1-.19-1-1s.55-1 1-1h2v2zm11 0H8v-2h8z"/>
	</symbol>
	<symbol id="icon-wine_cellar" viewBox="0 0 24 24" xml:space="preserve">
	  <path d="M11.5 2c-.28 0-.5.22-.5.5V7c-.07 0-.15 0-.22.03c-.96.24-1.57.97-2.02 1.86C8.3 9.76 8 10.84 8 12c.05 3 0 6.03 0 9c0 .55.45 1 1 1h6c.55 0 1-.45 1-1c.04-3 0-6 0-9c0-1.16-.26-2.24-.72-3.12c-.45-.88-1.06-1.61-2.02-1.84C13.18 7 13.05 7 13 7V2.5c0-.28-.22-.5-.5-.5M12 8.85c.32 0 .63.05.78.15c.07.03.42.26.72.81c.28.56.5 1.36.5 2.19v8h-4v-8c0-.83.22-1.63.5-2.19c.3-.55.65-.78.72-.81c.14-.1.46-.15.78-.15"/>
	</symbol>
	<symbol id="icon-spa" viewBox="0 0 24 24" xml:space="preserve">
	  <path d="M18.923 10.789q-.552 0-.94-.381t-.387-.933t.388-.93t.939-.378t.93.378t.378.93t-.378.933t-.93.38m-13.846 0q-.552 0-.93-.38q-.378-.381-.378-.933t.378-.93t.93-.378t.94.378t.387.93t-.388.933t-.939.38m4.012-.865q.172-.76.006-1.393q-.166-.634-.73-1.297q-.703-.835-.944-1.697q-.24-.863-.061-1.959h.87q-.136.998.04 1.716t.72 1.369q.704.853.93 1.61q.224.755.046 1.651zm2.807 0q.173-.779.007-1.412q-.166-.634-.73-1.297q-.684-.835-.925-1.688q-.24-.853-.061-1.949h.87q-.142 1.01.037 1.722t.723 1.363q.704.853.93 1.61q.224.755.045 1.651zm2.827 0q.173-.779.007-1.412q-.166-.634-.73-1.297q-.684-.835-.925-1.688q-.24-.853-.061-1.949h.87q-.142 1.01.037 1.722q.179.713.723 1.363q.704.853.929 1.61q.225.755.046 1.651zM3 21v-7h.77v-.625q0-.64.45-1.094t1.092-.454q.38 0 .714.178t.59.453L7.952 14h8.096l1.337-1.542q.256-.275.589-.453q.334-.178.715-.178q.64 0 1.09.454t.452 1.094V14H21v7zm1-3.384h16V15H4zM4 20h16v-1.384H4zm8-1.384v-1z"/>
	</symbol>
	<symbol id="icon-computer" viewBox="0 0 256 256" xml:space="preserve">
	  <path d="M214 72a6 6 0 0 1-6 6h-32a6 6 0 0 1 0-12h32a6 6 0 0 1 6 6m-6 26h-32a6 6 0 0 0 0 12h32a6 6 0 0 0 0-12m38-50v160a14 14 0 0 1-14 14h-80a14 14 0 0 1-14-14v-18H94v20h18a6 6 0 0 1 0 12H64a6 6 0 0 1 0-12h18v-20H32a22 22 0 0 1-22-22V96a22 22 0 0 1 22-22h106V48a14 14 0 0 1 14-14h80a14 14 0 0 1 14 14M138 178V86H32a10 10 0 0 0-10 10v72a10 10 0 0 0 10 10Zm96-130a2 2 0 0 0-2-2h-80a2 2 0 0 0-2 2v160a2 2 0 0 0 2 2h80a2 2 0 0 0 2-2Zm-42 122a10 10 0 1 0 10 10a10 10 0 0 0-10-10"/>
	</symbol>
	<symbol id="icon-heat_pump" viewBox="0 0 24 24" xml:space="preserve">
	  <path fill="currentColor" d="M7 18.6q-1.25 0-2.125-.875T4 15.6v-9h2v9q0 .425.288.713T7 16.6t.713-.288T8 15.6v-6q0-1.25.875-2.125T11 6.6t2.125.875T14 9.6v6q0 .425.288.713T15 16.6t.713-.288T16 15.6v-7q0-1.25.875-2.125T19 5.6h1.175L19 4.425L20.4 3L24 6.6l-3.6 3.575L19 8.75l1.175-1.15H19q-.425 0-.712.288T18 8.6v7q0 1.25-.875 2.125T15 18.6t-2.125-.875T12 15.6v-6q0-.425-.288-.712T11 8.6t-.712.288T10 9.6v6q0 1.25-.875 2.125T7 18.6m-4 3q-.825 0-1.412-.587T1 19.6v-8h22v8q0 .825-.587 1.413T21 21.6zm0-2h18v-6H3zm18-6H3z"/>
	</symbol>
	<symbol id="icon-stove" viewBox="0 0 24 24" xml:space="preserve">
	  <g fill="none" stroke="currentColor" stroke-linecap="round" stroke-linejoin="round" stroke-width="1.5">
	    <path d="M2 6c0-3.31.69-4 4-4h12c3.31 0 4 .69 4 4v12c0 3.31-.69 4-4 4H6c-3.31 0-4-.69-4-4zm4 13h4m8 .009V19"/>
	    <circle cx="12" cy="10" r="4"/>
	    <path d="M15.5 10H17m-5 3.5V15m-3.5-5H7m5-3.5V5"/>
	  </g>
	</symbol>
	<symbol id="icon-music" viewBox="0 0 24 24" xml:space="preserve">
	  <path fill="currentColor" d="M6.462 20h-.846q-.691 0-1.153-.462T4 18.384V12q0-1.665.626-3.119T6.34 6.34t2.54-1.714T12 4t3.12.626t2.54 1.714t1.713 2.541T20 12v6.385q0 .69-.462 1.152T18.384 20h-.846q-.666 0-1.14-.475t-.475-1.14V15.46q0-.666.475-1.14t1.14-.475H19V12q0-2.925-2.037-4.962T12 5T7.038 7.038T5 12v1.846h1.462q.666 0 1.14.475t.475 1.14v2.924q0 .666-.475 1.14T6.463 20"/>
	</symbol>
	<symbol id="icon-multimedia" viewBox="0 0 24 24" xml:space="preserve">
	  <path fill="currentColor" d="M10.856 8.155A1.25 1.25 0 0 0 9 9.248v5.504a1.25 1.25 0 0 0 1.856 1.093l5.757-3.189a.75.75 0 0 0 0-1.312zM12 2C6.477 2 2 6.477 2 12s4.477 10 10 10s10-4.477 10-10S17.523 2 12 2M3.5 12a8.5 8.5 0 1 1 17 0a8.5 8.5 0 0 1-17 0"/>
	</symbol>
	<symbol id="icon-battery-0" viewBox="0 0 512 512" xml:space="preserve">
	  <path fill="currentColor" d="M201 16c-15 0-20 3.38-20 20v15h-45c-29.547 0-35 5.453-35 35v375c0 29.547 5.453 35 35 35h240c29.547 0 35-5.453 35-35V86c0-29.547-5.453-35-35-35h-45V36c0-16.62-5-20-20-20zm-65 105c0-40-5-35 35-35h170c40 0 35-5 35 35v305c0 40 5 35-35 35H171c-40 0-35 5-35-35z"/>
	</symbol>
	<symbol id="icon-battery-25" viewBox="0 0 512 512" xml:space="preserve">
	  <path fill="currentColor" d="M201 16c-15 0-20 3.38-20 20v15h-45c-29.547 0-35 5.453-35 35v375c0 29.547 5.453 35 35 35h240c29.547 0 35-5.453 35-35V86c0-29.547-5.453-35-35-35h-45V36c0-16.62-5-20-20-20zm-48.094 69.813c4.666.02 10.594.187 18.094.187h170c40 0 35-5 35 35v305c0 40 5 35-35 35H171c-40 0-35 5-35-35V121c0-32.5-3.31-35.283 16.906-35.188zM161 371c-5.54 0-10 4.46-10 10v55c0 5.54 4.46 10 10 10h190c5.54 0 10-4.46 10-10v-55c0-5.54-4.46-10-10-10z"/>
	</symbol>
	<symbol id="icon-battery-50" viewBox="0 0 512 512" xml:space="preserve">
	  <path fill="currentColor" d="M201 16c-15 0-20 3.38-20 20v15h-45c-29.547 0-35 5.453-35 35v375c0 29.547 5.453 35 35 35h240c29.547 0 35-5.453 35-35V86c0-29.547-5.453-35-35-35h-45V36c0-16.62-5-20-20-20zm-48.094 69.813c4.666.02 10.594.187 18.094.187h170c40 0 35-5 35 35v305c0 40 5 35-35 35H171c-40 0-35 5-35-35V121c0-32.5-3.31-35.283 16.906-35.188zM161 281c-5.54 0-10 4.46-10 10v55c0 5.54 4.46 10 10 10h190c5.54 0 10-4.46 10-10v-55c0-5.54-4.46-10-10-10zm0 90c-5.54 0-10 4.46-10 10v55c0 5.54 4.46 10 10 10h190c5.54 0 10-4.46 10-10v-55c0-5.54-4.46-10-10-10z"/>
	</symbol>
	<symbol id="icon-battery-75" viewBox="0 0 512 512" xml:space="preserve">
	  <path fill="currentColor" d="M201 16c-15 0-20 3.38-20 20v15h-45c-29.547 0-35 5.453-35 35v375c0 29.547 5.453 35 35 35h240c29.547 0 35-5.453 35-35V86c0-29.547-5.453-35-35-35h-45V36c0-16.62-5-20-20-20zm-48.094 69.813c4.666.02 10.594.187 18.094.187h170c40 0 35-5 35 35v305c0 40 5 35-35 35H171c-40 0-35 5-35-35V121c0-32.5-3.31-35.283 16.906-35.188zM161 191c-5.54 0-10 4.46-10 10v55c0 5.54 4.46 10 10 10h190c5.54 0 10-4.46 10-10v-55c0-5.54-4.46-10-10-10zm0 90c-5.54 0-10 4.46-10 10v55c0 5.54 4.46 10 10 10h190c5.54 0 10-4.46 10-10v-55c0-5.54-4.46-10-10-10zm0 90c-5.54 0-10 4.46-10 10v55c0 5.54 4.46 10 10 10h190c5.54 0 10-4.46 10-10v-55c0-5.54-4.46-10-10-10z"/>
	</symbol>
	<symbol id="icon-battery-100" viewBox="0 0 512 512" xml:space="preserve">
	  <path fill="currentColor" d="M201 16c-15 0-20 3.38-20 20v15h-45c-29.547 0-35 5.453-35 35v375c0 29.547 5.453 35 35 35h240c29.547 0 35-5.453 35-35V86c0-29.547-5.453-35-35-35h-45V36c0-16.62-5-20-20-20zm-48.094 69.813c4.666.02 10.594.187 18.094.187h170c40 0 35-5 35 35v305c0 40 5 35-35 35H171c-40 0-35 5-35-35V121c0-32.5-3.31-35.283 16.906-35.188zM161 101c-5.54 0-10 4.46-10 10v55c0 5.54 4.46 10 10 10h190c5.54 0 10-4.46 10-10v-55c0-5.54-4.46-10-10-10zm0 90c-5.54 0-10 4.46-10 10v55c0 5.54 4.46 10 10 10h190c5.54 0 10-4.46 10-10v-55c0-5.54-4.46-10-10-10zm0 90c-5.54 0-10 4.46-10 10v55c0 5.54 4.46 10 10 10h190c5.54 0 10-4.46 10-10v-55c0-5.54-4.46-10-10-10zm0 90c-5.54 0-10 4.46-10 10v55c0 5.54 4.46 10 10 10h190c5.54 0 10-4.46 10-10v-55c0-5.54-4.46-10-10-10z"/>
	</symbol>
	<symbol id="icon-load" viewBox="0 0 24 24" xml:space="preserve">
	  <path fill="currentColor" d="m15 13l-4 4v-3H2v-2h9V9l4 4M5 20v-4h2v2h10v-7.81l-5-4.5L7.21 10H4.22L12 3l10 9h-3v8H5Z"/>
	</symbol>
	<symbol id="icon-aux" viewBox="0 0 24 24" xml:space="preserve">
	  <path fill="currentColor" d="M6 3a2 2 0 0 0-2 2v11h2v1c0 .55.45 1 1 1h1c.55 0 1-.45 1-1v-1h6v1c0 .55.45 1 1 1h1c.55 0 1-.45 1-1v-1h2V5a2 2 0 0 0-2-2H6m6 4V5h6v2h-6m0 2h6v2h-6V9M8 5v4h2l-3 6v-4H5l3-6m14 15v2H2v-2h20Z"/>
	</symbol>
	<symbol id="icon-transmission-on" viewBox="0 0 24 24" xml:space="preserve">
	  <path fill="currentColor" d="m8.28 5.45l-1.78-.9L7.76 2h8.47l1.27 2.55l-1.78.89L15 4H9l-.72 1.45M18.62 8h-4.53l-.79-3h-2.6l-.79 3H5.38L4.1 10.55l1.79.89l.73-1.44h10.76l.72 1.45l1.79-.89L18.62 8m-.85 14H15.7l-.24-.9L12 15.9l-3.47 5.2l-.23.9H6.23l2.89-11h2.07l-.36 1.35L12 14.1l1.16-1.75l-.35-1.35h2.07l2.89 11m-6.37-7l-.9-1.35l-1.18 4.48L11.4 15m3.28 3.12l-1.18-4.48l-.9 1.36l2.08 3.12Z"/>
	</symbol>
	<symbol id="icon-transmission-off" viewBox="0 0 24 24" xml:space="preserve">
	  <path fill="currentColor" d="M22.1 21.5L2.4 1.7L1.1 3l5 5h-.7l-1.3 2.5l1.8.9l.7-1.4h1.5l1 1l-2.9 11h2.1l.2-.9l3.5-5.2l3.5 5.2l.2.9h2.1l-.8-3.2l3.9 3.9l1.2-1.2M9.3 18.1l1.2-4.5l.9 1.3l-2.1 3.2m5.4 0L12.6 15l.2-.3l1.3 1.3l.6 2.1m-.5-7.1h.7l.2.9l-.9-.9m-.1-3h4.5l1.3 2.6l-1.8.9l-.7-1.5h-4.2l-3-3l.5-2h2.6l.8 3M8.4 5.2L6.9 3.7L7.8 2h8.5l1.3 2.5l-1.8.9L15 4H9l-.6 1.2Z"/>
	</symbol>
</svg>